<?xml version="1.0" standalone="no"?>
<!DOCTYPE svg PUBLIC "-//W3C//DTD SVG 1.1//EN" "http://www.w3.org/Graphics/SVG/1.1/DTD/svg11.dtd" >
<svg xmlns="http://www.w3.org/2000/svg">
<metadata>
This is a custom SVG webfont generated by Font Squirrel.
Copyright   : Digitized data C 2004 Agfa Monotype Corporation Neo SansTM is a trademark of Agfa Monotype Corporation and may be registered in certain jurisdictions  All rights reserved Neo Sans is designed by Sebastian Lester
Foundry     : Digitized data C Agfa Monotype Corporation Neo SansTM is a trademark of Agfa Monotype Corporation and may be registered in certain jurisdictions
</metadata>
<defs>
<font id="webfont4zqSqM0N" horiz-adv-x="1239" >
<font-face units-per-em="2048" ascent="1638" descent="-410" />
<missing-glyph horiz-adv-x="559" />
<glyph unicode=" "  horiz-adv-x="559" />
<glyph unicode="&#x09;" horiz-adv-x="559" />
<glyph unicode="&#xa0;" horiz-adv-x="559" />
<glyph unicode="&#x26;" horiz-adv-x="1388" d="M168 305q0 158 90 261.5t287 213.5l-21 29q-78 106 -110.5 178t-32.5 160q0 197 120 293t324 96q195 0 300.5 -75t105.5 -204q0 -143 -87 -242.5t-302 -223.5l-70 -41l299 -398q102 139 154 387q6 33 32 33h93q31 0 30 -24v-9q-70 -324 -221 -499l154 -205q8 -10 8 -19 q0 -16 -25 -16h-143q-20 0 -31 14l-82 111q-188 -139 -432 -139q-205 0 -322.5 78.5t-117.5 240.5zM352 311q0 -104 67.5 -144t213.5 -40q190 0 328 104l-332 437q-139 -78 -208 -153t-69 -204zM549 1147q0 -66 25.5 -117t93.5 -141l18 -25l82 45q166 92 209 131 q86 80 86 217q0 72 -53.5 108t-184.5 36q-145 0 -210.5 -57.5t-65.5 -196.5z" />
<glyph unicode="," horiz-adv-x="438" d="M8 -182q0 8 6 20l185 387q18 39 49 39h119q20 0 20 -16q0 -10 -6 -23l-221 -387q-20 -39 -45 -39h-84q-23 1 -23 19z" />
<glyph unicode="-" horiz-adv-x="681" d="M197 553v6l14 80q8 37 45 37h408q33 0 32 -31v-6l-14 -80q-6 -35 -45 -35h-408q-32 0 -32 29z" />
<glyph unicode="." horiz-adv-x="438" d="M139 35v8l33 190q6 39 45 39h98q33 0 33 -32v-7l-33 -190q-8 -41 -47 -41h-98q-31 0 -31 33z" />
<glyph unicode="0" d="M209 430q0 88 18 193l47 276q57 338 212 487.5t405 149.5q197 0 302 -109.5t105 -328.5q0 -90 -18 -199l-47 -276q-57 -338 -211 -487.5t-404 -149.5q-193 0 -301 110.5t-108 333.5zM397 426q0 -152 61.5 -217.5t186.5 -65.5q145 0 253 119t149 361l47 276q18 111 18 193 q0 154 -62.5 220t-185.5 66q-145 0 -252.5 -119.5t-148.5 -359.5l-47 -276q-19 -115 -19 -197z" />
<glyph unicode="1" d="M467 1223v8l18 104q2 16 25 27l336 147q27 12 45 13h84q33 0 33 -33v-6l-254 -1442q-8 -41 -45 -41h-113q-29 0 -29 33v8l226 1288l-283 -115q-14 -6 -27 -6q-16 1 -16 15z" />
<glyph unicode="2" d="M172 33v6l31 166q61 340 407 547l232 139q147 88 190 135q78 80 78 201q0 82 -63.5 117.5t-213 35.5t-368.5 -30h-8q-27 0 -27 26v10l14 72q6 29 45 37q170 41 371 41q213 0 322.5 -75t109.5 -218q0 -158 -91 -269.5t-251 -207.5l-221 -133q-186 -111 -258 -201t-96 -227 l-8 -43h682q35 0 34 -29v-6l-16 -90q-6 -37 -47 -37h-813q-35 0 -35 33z" />
<glyph unicode="3" d="M184 59v7l13 69q6 35 41 35h6q211 -29 338 -29q381 0 381 383q0 82 -46.5 137.5t-152.5 55.5h-373q-33 0 -33 31v6l13 71q6 39 45 39h372q141 0 218 96.5t77 239.5q0 102 -60 141t-216 39q-102 0 -356 -30h-7q-29 0 -28 26v8l12 72q6 31 47 39q205 41 352 41 q213 0 331 -77t118 -232q0 -141 -69.5 -261t-194.5 -178q139 -76 139 -258q0 -274 -156.5 -409t-439.5 -135q-168 0 -340 41q-31 5 -31 32z" />
<glyph unicode="4" d="M166 459q0 16 2 26l12 78q6 39 39 76l756 850q29 33 65 33h121q45 0 45 -35v-10l-162 -916h179q33 0 32 -31v-6l-14 -82q-6 -37 -45 -36h-178l-64 -365q-8 -41 -43 -41h-118q-27 0 -27 31v10l63 365h-591q-72 0 -72 53zM371 571q0 -10 14 -10h473l121 674v4q0 8 -6 8h-2 q-6 0 -19 -12l-571 -645q-10 -15 -10 -19z" />
<glyph unicode="5" d="M170 55v8l14 76q6 31 39 31h8q160 -29 352.5 -29t296 112t103.5 304q0 123 -87 167t-296 44h-246q-29 0 -28 27q0 2 1 5t1 5l178 682q10 35 47 35h704q35 0 35 -29v-6l-16 -90q-6 -33 -47 -33h-588l-111 -442h97q547 0 547 -355q0 -283 -164 -432t-453 -149 q-207 0 -354 37q-33 7 -33 32z" />
<glyph unicode="6" d="M193 387q0 109 12 180l63 359q59 334 214 472t427 138q195 0 346 -35q41 -8 41 -33v-6l-14 -80q-6 -37 -43 -36q-2 0 -6 1t-6 1q-160 33 -344 32q-207 0 -298 -113.5t-132 -340.5l-4 -23q197 41 315 41q193 0 313.5 -85t120.5 -257q0 -276 -160.5 -446t-439.5 -170 q-405 0 -405 401zM373 385q0 -141 61.5 -194.5t190.5 -53.5q180 0 283.5 133t103.5 320q0 209 -273 209q-160 0 -315 -37l-35 -195q-16 -96 -16 -182z" />
<glyph unicode="7" d="M289 23q0 14 10 30l844 1286q4 8 4 11q0 12 -12 12h-693q-35 0 -34 29v4v2l16 86q8 39 47 39h686q84 0 129 -41t45 -103q0 -51 -31 -98l-806 -1249q-23 -31 -52 -31h-129q-24 0 -24 23z" />
<glyph unicode="8" d="M180 348q0 141 73 262t198 185q-143 80 -144 249q0 240 164 366t410 126h20q193 0 312.5 -83t119.5 -236q0 -135 -71.5 -251t-192.5 -171q145 -88 145 -273q0 -256 -161.5 -396t-423.5 -140h-21q-184 0 -306 98t-122 264zM369 358q0 -113 65.5 -165t200.5 -52h20 q176 0 274.5 100.5t98.5 272.5q0 88 -52 147.5t-165 59.5h-127q-150 0 -232.5 -105.5t-82.5 -257.5zM489 1061q0 -86 53.5 -139.5t168.5 -53.5h127q137 0 224 90.5t87 227.5q0 104 -67.5 151t-207.5 47h-20q-154 0 -259.5 -86.5t-105.5 -236.5z" />
<glyph unicode="9" d="M188 53v6l15 80q6 37 43 37q2 0 6 -1t6 -1q160 -33 344 -33q207 0 298 114t132 341l4 22q-197 -41 -315 -40q-193 0 -313.5 85t-120.5 257q0 276 160.5 446t439.5 170q406 0 405 -401q0 -109 -12 -181l-63 -358q-59 -334 -214 -472t-428 -138q-195 0 -346 34 q-41 8 -41 33zM473 932q0 -209 272 -209q160 0 316 37l35 194q16 96 16 183q0 141 -61.5 194t-190.5 53q-180 0 -283.5 -133t-103.5 -319z" />
<glyph unicode="A" horiz-adv-x="1296" d="M66 27q0 12 4 20l614 1333q72 156 236 156q162 0 180 -154l143 -1335v-8q0 -39 -35 -39h-123q-25 0 -28 31l-51 471h-531l-213 -471q-12 -31 -43 -31h-125q-28 0 -28 27zM543 664h452l-67 673q-4 37 -33 37q-31 0 -47 -37z" />
<glyph unicode="B" horiz-adv-x="1261" d="M172 57q0 14 2 23l240 1364q12 66 80 76q139 16 327 16q242 0 387.5 -78t145.5 -246v-36q0 -23 -8 -68q-45 -240 -275 -322q82 -33 127 -105.5t45 -164.5q0 -41 -10 -96q-43 -244 -214 -339t-460 -95q-219 0 -332 18q-55 8 -55 53zM375 152q20 0 95 -4.5t116 -4.5 q135 0 225 22.5t153.5 85t82.5 169.5q10 55 10 94q0 201 -266 201h-316zM500 864h315q297 0 344 244q8 43 8 63v23q0 106 -93 145t-279 39q-33 0 -205 -6z" />
<glyph unicode="C" horiz-adv-x="1116" d="M217 455q0 80 14 163l52 285q115 633 651 633q137 0 338 -33q29 -4 28 -22v-4l-18 -105q-2 -23 -29 -22h-6q-215 18 -340 18q-164 0 -279.5 -109.5t-158.5 -355.5l-51 -285q-14 -80 -15 -151q0 -313 289 -313q145 0 342 16h8q27 0 27 -23v-10l-14 -84q-6 -33 -49 -41 q-143 -27 -344 -26q-82 0 -158 25.5t-141.5 77.5t-105.5 146.5t-40 219.5z" />
<glyph unicode="D" horiz-adv-x="1312" d="M168 45q0 2 1 6t1 6l248 1407q10 45 51 52q123 20 377 20q242 0 382 -122t140 -357q0 -78 -14 -158l-47 -276q-111 -637 -734 -637q-250 0 -368 20q-37 6 -37 39zM375 150q66 -4 227 -5q197 0 337 114t181 364l47 276q14 78 15 148q0 330 -365 329q-125 0 -227 -6z" />
<glyph unicode="E" horiz-adv-x="1128" d="M217 281q0 45 8 86l137 788q39 217 158 299t346 82q297 0 398 -18q16 -2 16 -25v-4l-18 -96q-4 -25 -27 -25h-395q-156 0 -213.5 -45t-77.5 -168l-49 -285h628q33 0 33 -34v-7l-12 -77q-8 -41 -49 -41h-629l-59 -344q-10 -55 -11 -84q0 -70 48.5 -99.5t175.5 -29.5h395 q18 0 18 -19v-6l-18 -100q-4 -25 -25 -29q-139 -14 -401 -14q-178 0 -277.5 75t-99.5 220z" />
<glyph unicode="F" horiz-adv-x="1128" d="M168 35v6l194 1114q39 219 158 300t346 81q291 0 400 -18q14 -2 14 -21v-8l-18 -96q-4 -25 -27 -25h-395q-156 0 -213.5 -45t-77.5 -168l-49 -285h628q33 0 33 -34v-7l-12 -77q-8 -41 -49 -41h-629l-117 -670q-8 -41 -47 -41h-104q-35 0 -35 35z" />
<glyph unicode="G" horiz-adv-x="1253" d="M215 467q0 78 14 156l47 274q111 639 662 639q209 0 385 -29q29 -4 29 -24v-6l-19 -103q-2 -20 -28 -20h-9q-166 14 -387 14q-74 0 -139 -22.5t-127.5 -72.5t-110 -146.5t-69.5 -229.5l-47 -274q-16 -98 -17 -162q0 -309 277 -309q113 0 260 12l104 586q8 41 43 41h111 q33 0 33 -35v-6l-123 -689q-6 -39 -45 -45q-193 -31 -412 -30q-180 0 -306 120.5t-126 360.5z" />
<glyph unicode="H" horiz-adv-x="1392" d="M168 33v8l252 1440q8 41 49 41h104q33 0 33 -33v-8l-104 -594h700l105 594q8 41 49 41h104q33 0 33 -33v-8l-252 -1440q-8 -41 -49 -41h-105q-33 0 -32 33v8l119 680h-701l-119 -680q-8 -41 -49 -41h-104q-33 0 -33 33z" />
<glyph unicode="I" horiz-adv-x="546" d="M188 33v8l254 1442q8 39 43 39h113q31 0 31 -31v-8l-254 -1442q-8 -41 -45 -41h-113q-29 0 -29 33z" />
<glyph unicode="J" horiz-adv-x="526" d="M-129 -330l12 76q6 35 47 35h80q78 0 110 31.5t46 111.5l276 1559q8 39 45 39h109q33 0 33 -33v-6l-277 -1559q-27 -150 -114.5 -221.5t-253.5 -71.5q-78 0 -105 17q-8 6 -8 16v6z" />
<glyph unicode="K" horiz-adv-x="1243" d="M168 33v8l254 1442q8 39 45 39h108q33 0 33 -33v-6l-112 -643l688 663q20 18 45 19h160q27 0 26 -21q0 -12 -10 -22l-758 -697l490 -749q4 -8 4 -13q0 -20 -23 -20h-147q-29 0 -41 20l-455 709l-121 -688q-8 -41 -45 -41h-112q-29 0 -29 33z" />
<glyph unicode="L" horiz-adv-x="1052" d="M219 276q0 61 10 115l191 1090q8 41 49 41h104q33 0 33 -33v-8l-194 -1114q-10 -55 -11 -91q0 -70 47.5 -96t176.5 -26h385q27 0 26 -25v-6l-14 -90q-2 -25 -27 -29q-125 -18 -401 -18q-174 0 -274.5 62t-100.5 228z" />
<glyph unicode="M" horiz-adv-x="1558" d="M168 33v8l250 1421q4 25 24.5 42.5t44.5 17.5h127q49 0 60 -35l215 -703q8 -23 20 -22q14 0 29 22l461 703q20 35 71 35h140q20 0 34.5 -13.5t14.5 -35.5v-11l-250 -1421q-8 -41 -49 -41h-100q-33 0 -33 33v8l213 1214v2q0 4 -2 5l-4 -5l-400 -606q-39 -59 -102 -59h-94 q-37 0 -54.5 13t-27.5 46l-185 606q0 4 -4 4.5t-4 -6.5l-213 -1214q-8 -41 -49 -41h-100q-33 0 -33 33z" />
<glyph unicode="N" horiz-adv-x="1392" d="M164 18v7l254 1439q4 25 24.5 41.5t44.5 16.5h101q41 0 54 -8.5t22 -32.5l430 -1196l2 -6h4l2 6l211 1198q8 39 43 39h108q31 0 31 -31v-8l-252 -1424q-4 -25 -24.5 -42t-44.5 -17h-119q-47 0 -60 33l-430 1202l-4 6q-4 0 -4 -6l-211 -1196q-8 -39 -43 -39h-106 q-33 0 -33 18z" />
<glyph unicode="O" horiz-adv-x="1353" d="M217 457q0 74 16 172l48 264q115 643 667 643q209 0 333 -122t124 -349q0 -74 -16 -172l-48 -264q-113 -643 -665 -643q-207 0 -333 120t-126 351zM408 473q0 -170 75.5 -244.5t221.5 -74.5q172 0 288.5 117.5t159.5 357.5l47 264q16 84 17 170q0 162 -76 233.5 t-221 71.5q-174 0 -291 -116.5t-160 -358.5l-47 -264q-14 -80 -14 -156z" />
<glyph unicode="P" horiz-adv-x="1214" d="M168 33v6v2l250 1427q10 45 59 52q143 16 342 16q238 0 370 -89t132 -271q0 -37 -6 -84l-4 -27q-20 -133 -78.5 -226.5t-149 -142.5t-193 -69.5t-235.5 -20.5q-74 0 -202 10l-101 -575q-8 -41 -45 -41h-110q-29 0 -29 33zM479 770q188 -8 205 -8q205 0 310.5 75.5 t129.5 227.5l4 27q6 39 7 71q0 117 -82 166t-260 49q-109 0 -207 -8z" />
<glyph unicode="Q" horiz-adv-x="1353" d="M217 457q0 74 16 172l48 264q115 643 667 643q209 0 333 -122t124 -349q0 -74 -16 -172l-48 -264q-104 -590 -577 -639l-14 -88q-6 -33 -7 -56q0 -39 24 -51t87 -12h121q39 0 39 -27v-6l-13 -69q-8 -49 -174 -50q-137 0 -202.5 41t-65.5 146q0 41 8 82l17 92 q-168 27 -267.5 143.5t-99.5 321.5zM408 473q0 -170 75.5 -244.5t221.5 -74.5q172 0 288.5 117.5t159.5 357.5l47 264q16 84 17 170q0 162 -76 233.5t-221 71.5q-174 0 -291 -116.5t-160 -358.5l-47 -264q-14 -80 -14 -156z" />
<glyph unicode="R" horiz-adv-x="1280" d="M168 33v6v2l252 1434q8 39 57 45q143 16 363 16q231 0 366 -90t135 -275q0 -37 -6 -75l-2 -15q-25 -174 -129 -278.5t-266 -134.5l266 -629q4 -8 4 -14q0 -25 -30 -25h-134q-14 0 -19 1t-11 7t-10 19l-259 610h-20h-43q-72 0 -225 6l-105 -602q-8 -41 -45 -41h-110 q-29 0 -29 33zM485 801q102 -4 226 -4q397 0 438 284l2 15q6 37 6 67q0 117 -81 161t-265 44q-178 0 -227 -6z" />
<glyph unicode="S" horiz-adv-x="1126" d="M145 41l2 4v6l15 82q6 33 41 33h6q139 -12 336 -12q358 0 358 284q0 59 -42 106.5t-154 125.5l-179 121q-223 152 -223 333q0 147 79 242.5t191.5 132.5t255.5 37q231 0 383 -25q29 -4 29 -28v-6l-14 -88q-6 -33 -41 -33h-4q-180 12 -353 12q-72 0 -125 -8t-105 -30.5 t-80.5 -72t-28.5 -122.5q0 -53 38.5 -98.5t143.5 -114.5l168 -113q139 -94 198.5 -180t59.5 -191q0 -219 -158 -335.5t-414 -116.5q-172 0 -348 28q-35 7 -35 27z" />
<glyph unicode="T" horiz-adv-x="1208" d="M317 1389v6l17 90q8 37 47 37h985q33 0 33 -31v-6l-17 -90q-6 -33 -45 -33h-399l-231 -1321q-8 -41 -45 -41h-113q-29 0 -29 33v8l232 1321h-400q-35 0 -35 27z" />
<glyph unicode="U" horiz-adv-x="1355" d="M238 403q0 76 14 150l164 930q8 39 45 39h110q33 0 33 -33v-6l-164 -930q-16 -88 -16 -147q0 -131 66.5 -196t214.5 -65q184 0 277 100.5t130 307.5l164 930q8 39 45 39h111q33 0 32 -33v-6l-164 -930q-53 -299 -205.5 -433t-418.5 -134q-207 0 -322.5 106t-115.5 311z " />
<glyph unicode="V" horiz-adv-x="1316" d="M332 1475v4q0 18 12 30.5t31 12.5h114q27 0 31 -31l127 -1305q4 -43 33 -43t47 43l588 1305q16 31 41 31h125q29 0 28 -27q0 -14 -4 -20l-612 -1334q-72 -156 -236 -155q-166 0 -182 155z" />
<glyph unicode="W" horiz-adv-x="1689" d="M315 94v2l17 1385q0 18 12 29.5t31 11.5h117q29 0 28 -33v-2l-31 -1305v-22q0 -8 5 -8q6 0 20 30l334 758q37 82 110 82h132q76 0 81 -82l68 -758q4 -31 8 -30q6 0 17 30l428 1305q12 35 41 35h120q29 0 29 -27q0 -10 -2 -14l-471 -1385q-35 -104 -145 -104h-88 q-43 0 -69 27.5t-30 74.5l-67 758q-2 18 -9 18h-2h-2q-8 0 -16 -18l-336 -758q-45 -102 -135 -102h-86q-53 0 -81 21.5t-28 80.5z" />
<glyph unicode="X" horiz-adv-x="1323" d="M98 25q0 12 11 26l593 727l-325 695q-4 8 -4 14q0 35 37 35h104q25 0 33 -21l272 -581l475 581q16 20 43 21h107q29 0 29 -25q0 -10 -11 -24l-571 -707l336 -715q4 -12 4 -16q0 -35 -39 -35h-102q-23 0 -37 31l-277 590l-477 -590q-25 -31 -49 -31h-123q-29 0 -29 25z " />
<glyph unicode="Y" horiz-adv-x="1193" d="M334 1485q0 37 39 37h119q25 0 32 -29l164 -664q14 -53 39 -53q23 0 55 53l404 664q16 29 39 29h131q31 0 30 -25q0 -10 -10 -27l-444 -712q-68 -109 -133 -135l-103 -582q-4 -16 -17 -28.5t-28 -12.5h-112q-29 0 -29 33v8l102 582q-57 25 -88 135l-188 712q-2 7 -2 15z " />
<glyph unicode="Z" horiz-adv-x="1222" d="M166 156q0 84 59 151l879 1018q8 8 8 18q0 12 -18 13h-670q-35 0 -35 28v7l17 96q6 35 47 35h690q84 0 131 -43t47 -109q0 -72 -55 -135l-904 -1038q-8 -8 -8 -17q0 -12 17 -12h731q35 0 35 -29v-6l-17 -96q-8 -37 -47 -37h-733q-80 0 -127 45t-47 111z" />
<glyph unicode="a" horiz-adv-x="1079" d="M152 348q0 57 12 123l37 203q84 467 532 467q174 0 359 -47q37 -8 36 -31q0 -10 -2 -16l-176 -1006q-8 -41 -47 -41h-82q-31 0 -30 33v8v4l10 64q-96 -70 -164 -96.5t-166 -26.5q-139 0 -229 91t-90 271zM332 350q0 -213 178 -213q121 0 297 119l125 713q-111 20 -199 20 q-297 0 -356 -334l-37 -211q-8 -41 -8 -94z" />
<glyph unicode="b" horiz-adv-x="1107" d="M150 51q0 2 1 7t1 10l251 1433q8 39 46 39h104q31 0 31 -31v-6v-2l-68 -381q117 20 244 21q182 0 276 -96.5t94 -270.5q0 -66 -12 -135l-26 -147q-92 -506 -535 -506q-197 0 -371 34q-36 8 -36 31zM346 156q135 -12 238 -13q264 0 327 349l27 147q14 74 14 139 q0 106 -51 155.5t-168 49.5q-162 0 -244 -14z" />
<glyph unicode="c" horiz-adv-x="925" d="M178 371q0 47 10 112l27 160q41 246 176 372t348 126q131 0 252 -23q35 -6 35 -31q0 -2 -1 -6t-1 -8l-12 -74q-6 -31 -43 -30h-6q-123 14 -250 14q-123 0 -207 -91t-111 -249l-26 -160q-12 -70 -13 -123q0 -217 207 -217q131 0 258 15h6q31 0 31 -25v-6l-12 -74 q-2 -20 -13.5 -30.5t-35.5 -14.5q-125 -23 -260 -22q-174 0 -266.5 106.5t-92.5 278.5z" />
<glyph unicode="d" horiz-adv-x="1107" d="M176 362q0 61 12 130l27 147q47 262 177 382t358 120q127 0 235 -21l68 381q8 39 47 39h104q29 0 29 -31v-6v-2l-252 -1433q-6 -39 -51 -48q-186 -35 -383 -34q-182 0 -276.5 101t-94.5 275zM354 358q0 -106 52.5 -160.5t166.5 -54.5q98 0 242 13l143 813q-76 14 -235 14 q-264 0 -328 -344l-26 -147q-15 -87 -15 -134z" />
<glyph unicode="e" horiz-adv-x="1114" d="M180 365q0 59 13 127l26 143q47 246 186.5 376t356.5 130q182 0 278.5 -105.5t96.5 -275.5q0 -59 -13 -123l-16 -86q-10 -45 -45 -45h-686l-6 -25q-16 -63 -17 -125q0 -219 256 -219q162 0 355 29h4h8q27 0 27 -21v-6v-2l-13 -69q-4 -23 -14 -33t-35 -15 q-186 -35 -358 -34q-170 0 -287 93t-117 286zM399 643h543l2 10q12 61 12 113q0 217 -221 217q-129 0 -217 -91t-117 -239z" />
<glyph unicode="f" horiz-adv-x="757" d="M-61 -291l12 68q6 31 43 30h96q74 0 108.5 31t49.5 113l182 1032l-190 14q-33 4 -33 29v6l10 58q8 37 45 36h193l26 148q31 176 108 230.5t228 54.5q53 0 119 -13q33 -6 33 -26v-7l-13 -67q-6 -31 -41 -31h-98q-78 0 -108.5 -25.5t-46.5 -115.5l-27 -148h221q33 0 33 -30 v-6l-12 -72q-6 -35 -48 -35h-219l-182 -1032q-31 -170 -113 -227.5t-223 -57.5q-66 0 -121 10q-33 6 -32 27v6z" />
<glyph unicode="g" horiz-adv-x="1107" d="M104 -334q0 2 1 5t1 5l11 60q6 33 43 33h4h2q209 -25 342 -25q137 0 196.5 53t81.5 193l5 24q-125 -29 -234 -28q-174 0 -277.5 90t-103.5 276q0 63 12 137l27 150q49 270 179 386t366 116q166 0 358 -47q37 -8 37 -33q0 -2 -1 -6t-1 -8l-184 -1045q-41 -231 -150.5 -318 t-337.5 -87q-217 0 -342 36q-35 10 -35 33zM354 344q0 -115 54.5 -161t175.5 -46q131 0 233 23l141 807q-121 23 -225 22q-143 0 -224 -85t-114 -265l-26 -150q-15 -77 -15 -145z" />
<glyph unicode="h" horiz-adv-x="1140" d="M147 33v6v2l256 1460q8 39 46 39h104q31 0 31 -31v-6v-2l-68 -389q125 29 240 29q190 0 286.5 -91.5t96.5 -236.5q0 -27 -9 -84l-120 -688q-8 -41 -49 -41h-99q-33 0 -33 33v6v2l121 688q8 41 8 82q0 94 -54 135t-175 41q-133 0 -242 -31l-159 -915q-8 -41 -49 -41h-99 q-33 0 -33 33z" />
<glyph unicode="i" horiz-adv-x="505" d="M170 33v8l182 1044q8 41 49 41h99q33 0 32 -32v-9l-182 -1044q-8 -41 -49 -41h-98q-33 0 -33 33zM397 1339v9l29 163q8 41 49 41h105q33 0 32 -32v-9l-28 -163q-8 -41 -49 -41h-105q-33 -1 -33 32z" />
<glyph unicode="j" horiz-adv-x="505" d="M-127 -362l12 75q6 29 49 29h86q57 0 81 24.5t38 102.5l213 1216q8 41 49 41h99q33 0 32 -32v-9l-213 -1216q-27 -152 -101.5 -212t-205.5 -60q-57 0 -108 8q-31 6 -31 24v9zM397 1339v9l29 165q6 39 47 39h107q33 0 32 -32v-7l-28 -165q-8 -41 -49 -41h-107 q-31 -1 -31 32z" />
<glyph unicode="k" horiz-adv-x="1015" d="M147 33v8l256 1458q8 41 50 41h98q33 0 33 -33v-8l-148 -831l471 440q18 18 45 18h140q27 0 26 -20q0 -14 -12 -27l-531 -487l371 -545q6 -10 6 -18q0 -29 -28 -29h-119q-35 0 -55 31l-336 504l-86 -494q-8 -41 -39 -41h-109q-33 0 -33 33z" />
<glyph unicode="l" horiz-adv-x="499" d="M168 33v8l256 1460q6 39 45 39h106q29 0 29 -31v-8l-256 -1460q-8 -41 -45 -41h-106q-29 0 -29 33z" />
<glyph unicode="m" horiz-adv-x="1632" d="M147 31v10l183 1044q8 41 47 41h98q31 0 31 -32v-9l-6 -38q158 94 299 94q66 0 121 -25.5t84 -66.5q166 92 335 92q147 0 223 -83t76 -214q0 -33 -10 -88l-125 -715q-8 -41 -49 -41h-98q-33 0 -33 33v8l125 715q8 43 8 86q0 78 -39 109.5t-123 31.5q-133 0 -250 -59 q4 -14 5 -56q0 -59 -9 -108l-125 -719q-8 -41 -45 -41h-108q-27 0 -27 33v8l125 719q14 80 14 110q0 113 -122 113q-104 0 -273 -78l-151 -864q-8 -41 -45 -41h-109q-27 0 -27 31z" />
<glyph unicode="n" horiz-adv-x="1140" d="M147 33v8l183 1044q8 41 47 41h100q31 0 31 -32v-9l-6 -43q174 98 329.5 98.5t231.5 -86.5t76 -229q0 -53 -11 -110l-118 -674q-8 -41 -49 -41h-99q-33 0 -33 33v8l119 674q10 66 10 112q0 78 -42 117t-148 39q-123 0 -289 -78l-151 -864q-4 -16 -18.5 -28.5t-30.5 -12.5 h-101q-31 0 -31 33z" />
<glyph unicode="o" horiz-adv-x="1116" d="M178 373q0 47 10 112l27 156q86 500 543 500q184 0 281.5 -105.5t97.5 -279.5q0 -49 -11 -115l-26 -156q-86 -500 -545 -499q-180 0 -278.5 105.5t-98.5 281.5zM356 365q0 -111 54.5 -166.5t171.5 -55.5q133 0 222 94.5t116 247.5l26 156q10 53 10 117q0 225 -225 225 q-133 0 -221 -92t-115 -250l-26 -156q-13 -67 -13 -120z" />
<glyph unicode="p" horiz-adv-x="1107" d="M76 -362l248 1409q4 23 14 31.5t37 15.5q199 47 385 47q182 0 276 -101.5t94 -273.5q0 -63 -12 -131l-26 -148q-47 -262 -174 -381.5t-361 -119.5q-117 0 -235 22l-66 -370q-8 -39 -47 -39h-105q-29 0 -28 30v6v3zM348 158q109 -20 236 -21q262 0 327 350l27 148 q14 74 14 141q0 109 -51 161t-168 52q-129 0 -244 -20z" />
<glyph unicode="q" horiz-adv-x="1107" d="M176 356q0 61 12 131l27 148q45 256 173 381t362 125q184 0 368 -47q37 -8 37 -33q0 -2 -1 -6t-1 -8l-248 -1409q-6 -39 -45 -39h-104q-31 0 -31 30v6v3l66 370q-129 -23 -244 -22q-178 0 -274.5 98t-96.5 272zM352 342q0 -106 52.5 -155.5t168.5 -49.5q127 0 244 21 l141 811q-111 20 -235 20q-135 0 -217 -96t-111 -258l-26 -148q-17 -88 -17 -145z" />
<glyph unicode="r" horiz-adv-x="700" d="M147 33v8l183 1044q8 41 47 41h96q31 0 31 -32v-9l-8 -47q131 102 303 103h4q37 0 37 -29v-8l-15 -86q-6 -35 -49 -35h-6q-160 0 -293 -84l-149 -858q-8 -41 -49 -41h-101q-31 0 -31 33z" />
<glyph unicode="s" horiz-adv-x="954" d="M113 51v6l12 72q6 31 39 31h12q176 -23 318 -23q100 0 165.5 41t65.5 133q0 37 -25.5 69t-93.5 77l-184 121q-172 113 -172 247q0 168 122 242t302 74q174 0 301 -27q31 -6 31 -33v-8l-11 -67q-6 -35 -41 -35h-6q-139 16 -301 16q-215 0 -215 -145q0 -63 111 -135 l182 -121q102 -68 142 -127.5t40 -128.5q0 -180 -125 -262t-315 -82q-197 0 -320 30q-34 8 -34 35z" />
<glyph unicode="t" horiz-adv-x="768" d="M213 1028v6l10 56q8 37 45 36h199l33 201q6 35 45 41l108 16h6q25 0 25 -28v-6l-37 -224h221q33 0 33 -32v-9l-12 -69q-8 -41 -47 -41h-221l-127 -719q-6 -37 -7 -59q0 -41 20.5 -53.5t74.5 -12.5h125q29 0 28 -20v-9l-12 -71q-6 -29 -43 -35q-68 -10 -129 -10 q-246 0 -246 194q0 37 8 80l127 715l-194 22q-33 4 -33 31z" />
<glyph unicode="u" horiz-adv-x="1140" d="M203 309q0 57 12 125l115 651q8 41 49 41h98q33 0 33 -32v-9l-119 -673q-12 -68 -12 -117q0 -84 44 -118t146 -34q127 0 291 76l152 866q8 41 49 41h100q31 0 31 -32v-9l-182 -1044q-8 -41 -47 -41h-97q-31 0 -30 33v8l6 37q-178 -92 -340 -92q-137 0 -218 82.5 t-81 240.5z" />
<glyph unicode="v" horiz-adv-x="1085" d="M272 1077v6q0 43 39 43h105q31 0 33 -39l71 -888q4 -63 39 -64q31 0 59 64l388 888q18 39 45 39h123q27 0 26 -24q0 -12 -6 -25l-426 -930q-74 -162 -227 -161q-152 0 -170 161z" />
<glyph unicode="w" horiz-adv-x="1609" d="M268 1079q0 16 14.5 31.5t32.5 15.5h107q29 0 29 -32l6 -928q0 -25 12 -25q10 0 20 25l338 780q29 61 95 62h114q63 0 70 -62l63 -780q2 -25 13 -25q12 0 20 25l334 928q12 33 41 32h115q33 0 32 -34q0 -10 -2 -15l-366 -950q-53 -141 -197 -141q-59 0 -96 40t-43 113 l-59 690q-2 14 -7 15q-8 0 -14 -15l-301 -690q-70 -154 -193 -153q-141 0 -147 141z" />
<glyph unicode="x" horiz-adv-x="1120" d="M82 16q0 10 16 31l471 537l-254 491q-6 12 -6 21q0 31 35 30h113q20 0 37 -28l196 -379l332 379q27 29 47 28h125q23 0 23 -20q0 -14 -15 -31l-438 -497l274 -531q6 -10 6 -20q0 -27 -32 -27h-115q-27 0 -41 29l-213 411l-371 -420q-18 -20 -39 -20h-129q-22 0 -22 16z " />
<glyph unicode="y" horiz-adv-x="1093" d="M25 -354l14 75q6 33 45 33h6q129 -12 180 -12q90 0 140.5 35t93.5 139l35 84h-23q-55 0 -89 33t-46 127l-105 917v6q0 43 43 43h107q25 0 29 -32l86 -889q4 -45 30 -45h33l414 936q12 31 45 30h121q29 0 28 -26q0 -10 -6 -23l-547 -1179q-80 -172 -168 -238t-260 -66 q-94 0 -168 19q-39 12 -38 29v4z" />
<glyph unicode="z" horiz-adv-x="954" d="M119 143q0 74 47 121l653 678q12 12 12 21q0 12 -20 12h-504q-33 0 -33 35v6l13 69q8 41 47 41h512q82 0 123 -39.5t41 -101.5q0 -72 -56 -129l-641 -666q-14 -14 -14 -24q0 -14 20 -14h523q33 0 32 -33v-8l-12 -70q-8 -41 -47 -41h-518q-88 0 -133 41t-45 102z" />
<glyph unicode="&#xaa;" horiz-adv-x="1079" d="M152 348q0 57 12 123l37 203q84 467 532 467q174 0 359 -47q37 -8 36 -31q0 -10 -2 -16l-176 -1006q-8 -41 -47 -41h-82q-31 0 -30 33v8v4l10 64q-96 -70 -164 -96.5t-166 -26.5q-139 0 -229 91t-90 271zM332 350q0 -213 178 -213q121 0 297 119l125 713q-111 20 -199 20 q-297 0 -356 -334l-37 -211q-8 -41 -8 -94z" />
<glyph unicode="&#xad;" horiz-adv-x="681" d="M197 553v6l14 80q8 37 45 37h408q33 0 32 -31v-6l-14 -80q-6 -35 -45 -35h-408q-32 0 -32 29z" />
<glyph unicode="&#xb2;" d="M172 33v6l31 166q61 340 407 547l232 139q147 88 190 135q78 80 78 201q0 82 -63.5 117.5t-213 35.5t-368.5 -30h-8q-27 0 -27 26v10l14 72q6 29 45 37q170 41 371 41q213 0 322.5 -75t109.5 -218q0 -158 -91 -269.5t-251 -207.5l-221 -133q-186 -111 -258 -201t-96 -227 l-8 -43h682q35 0 34 -29v-6l-16 -90q-6 -37 -47 -37h-813q-35 0 -35 33z" />
<glyph unicode="&#xb3;" d="M184 59v7l13 69q6 35 41 35h6q211 -29 338 -29q381 0 381 383q0 82 -46.5 137.5t-152.5 55.5h-373q-33 0 -33 31v6l13 71q6 39 45 39h372q141 0 218 96.5t77 239.5q0 102 -60 141t-216 39q-102 0 -356 -30h-7q-29 0 -28 26v8l12 72q6 31 47 39q205 41 352 41 q213 0 331 -77t118 -232q0 -141 -69.5 -261t-194.5 -178q139 -76 139 -258q0 -274 -156.5 -409t-439.5 -135q-168 0 -340 41q-31 5 -31 32z" />
<glyph unicode="&#xb9;" d="M467 1223v8l18 104q2 16 25 27l336 147q27 12 45 13h84q33 0 33 -33v-6l-254 -1442q-8 -41 -45 -41h-113q-29 0 -29 33v8l226 1288l-283 -115q-14 -6 -27 -6q-16 1 -16 15z" />
<glyph unicode="&#xba;" horiz-adv-x="1116" d="M178 373q0 47 10 112l27 156q86 500 543 500q184 0 281.5 -105.5t97.5 -279.5q0 -49 -11 -115l-26 -156q-86 -500 -545 -499q-180 0 -278.5 105.5t-98.5 281.5zM356 365q0 -111 54.5 -166.5t171.5 -55.5q133 0 222 94.5t116 247.5l26 156q10 53 10 117q0 225 -225 225 q-133 0 -221 -92t-115 -250l-26 -156q-13 -67 -13 -120z" />
<glyph unicode="&#x152;" horiz-adv-x="2482" d="M1571 281q0 45 8 86l137 788q39 217 158 299t346 82q297 0 398 -18q16 -2 16 -25v-4l-18 -96q-4 -25 -27 -25h-395q-156 0 -213.5 -45t-77.5 -168l-49 -285h628q33 0 33 -34v-7l-12 -77q-8 -41 -49 -41h-629l-59 -344q-10 -55 -11 -84q0 -70 48.5 -99.5t175.5 -29.5h395 q18 0 18 -19v-6l-18 -100q-4 -25 -25 -29q-139 -14 -401 -14q-178 0 -277.5 75t-99.5 220zM217 457q0 74 16 172l48 264q115 643 667 643q209 0 333 -122t124 -349q0 -74 -16 -172l-48 -264q-113 -643 -665 -643q-207 0 -333 120t-126 351zM408 473q0 -170 75.5 -244.5 t221.5 -74.5q172 0 288.5 117.5t159.5 357.5l47 264q16 84 17 170q0 162 -76 233.5t-221 71.5q-174 0 -291 -116.5t-160 -358.5l-47 -264q-14 -80 -14 -156z" />
<glyph unicode="&#x153;" horiz-adv-x="2230" d="M1296 365q0 59 13 127l26 143q47 246 186.5 376t356.5 130q182 0 278.5 -105.5t96.5 -275.5q0 -59 -13 -123l-16 -86q-10 -45 -45 -45h-686l-6 -25q-16 -63 -17 -125q0 -219 256 -219q162 0 355 29h4h8q27 0 27 -21v-6v-2l-13 -69q-4 -23 -14 -33t-35 -15 q-186 -35 -358 -34q-170 0 -287 93t-117 286zM1515 643h543l2 10q12 61 12 113q0 217 -221 217q-129 0 -217 -91t-117 -239zM178 373q0 47 10 112l27 156q86 500 543 500q184 0 281.5 -105.5t97.5 -279.5q0 -49 -11 -115l-26 -156q-86 -500 -545 -499q-180 0 -278.5 105.5 t-98.5 281.5zM356 365q0 -111 54.5 -166.5t171.5 -55.5q133 0 222 94.5t116 247.5l26 156q10 53 10 117q0 225 -225 225q-133 0 -221 -92t-115 -250l-26 -156q-13 -67 -13 -120z" />
<glyph unicode="&#x2000;" horiz-adv-x="778" />
<glyph unicode="&#x2001;" horiz-adv-x="1558" />
<glyph unicode="&#x2002;" horiz-adv-x="778" />
<glyph unicode="&#x2003;" horiz-adv-x="1558" />
<glyph unicode="&#x2004;" horiz-adv-x="518" />
<glyph unicode="&#x2005;" horiz-adv-x="389" />
<glyph unicode="&#x2006;" horiz-adv-x="258" />
<glyph unicode="&#x2007;" horiz-adv-x="258" />
<glyph unicode="&#x2008;" horiz-adv-x="194" />
<glyph unicode="&#x2009;" horiz-adv-x="311" />
<glyph unicode="&#x200a;" horiz-adv-x="86" />
<glyph unicode="&#x2010;" horiz-adv-x="681" d="M197 553v6l14 80q8 37 45 37h408q33 0 32 -31v-6l-14 -80q-6 -35 -45 -35h-408q-32 0 -32 29z" />
<glyph unicode="&#x2011;" horiz-adv-x="681" d="M197 553v6l14 80q8 37 45 37h408q33 0 32 -31v-6l-14 -80q-6 -35 -45 -35h-408q-32 0 -32 29z" />
<glyph unicode="&#x2012;" horiz-adv-x="681" d="M197 553v6l14 80q8 37 45 37h408q33 0 32 -31v-6l-14 -80q-6 -35 -45 -35h-408q-32 0 -32 29z" />
<glyph unicode="&#x2013;" horiz-adv-x="1024" d="M197 524v152h841v-152h-841z" />
<glyph unicode="&#x2014;" horiz-adv-x="2048" d="M197 524v152h1865v-152h-1865z" />
<glyph unicode="&#x2026;" horiz-adv-x="1314" d="M1016 35v8l33 190q6 39 45 39h98q33 0 33 -32v-7l-33 -190q-8 -41 -47 -41h-98q-31 0 -31 33zM577 35v8l33 190q6 39 45 39h98q33 0 33 -32v-7l-33 -190q-8 -41 -47 -41h-98q-31 0 -31 33zM139 35v8l33 190q6 39 45 39h98q33 0 33 -32v-7l-33 -190q-8 -41 -47 -41h-98 q-31 0 -31 33z" />
<glyph unicode="&#x202f;" horiz-adv-x="311" />
<glyph unicode="&#x205f;" horiz-adv-x="389" />
<glyph unicode="&#x2122;" horiz-adv-x="2766" d="M1376 33v8l250 1421q4 25 24.5 42.5t44.5 17.5h127q49 0 60 -35l215 -703q8 -23 20 -22q14 0 29 22l461 703q20 35 71 35h140q20 0 34.5 -13.5t14.5 -35.5v-11l-250 -1421q-8 -41 -49 -41h-100q-33 0 -33 33v8l213 1214v2q0 4 -2 5l-4 -5l-400 -606q-39 -59 -102 -59h-94 q-37 0 -54.5 13t-27.5 46l-185 606q0 4 -4 4.5t-4 -6.5l-213 -1214q-8 -41 -49 -41h-100q-33 0 -33 33zM317 1389v6l17 90q8 37 47 37h985q33 0 33 -31v-6l-17 -90q-6 -33 -45 -33h-399l-231 -1321q-8 -41 -45 -41h-113q-29 0 -29 33v8l232 1321h-400q-35 0 -35 27z" />
<glyph unicode="&#xe000;" horiz-adv-x="1125" d="M0 1125h1125v-1125h-1125v1125z" />
<glyph unicode="&#xfb01;" horiz-adv-x="1263" d="M928 33v8l182 1044q8 41 49 41h99q33 0 32 -32v-9l-182 -1044q-8 -41 -49 -41h-98q-33 0 -33 33zM1155 1339v9l29 163q8 41 49 41h105q33 0 32 -32v-9l-28 -163q-8 -41 -49 -41h-105q-33 -1 -33 32zM-61 -291l12 68q6 31 43 30h96q74 0 108.5 31t49.5 113l182 1032 l-190 14q-33 4 -33 29v6l10 58q8 37 45 36h193l26 148q31 176 108 230.5t228 54.5q53 0 119 -13q33 -6 33 -26v-7l-13 -67q-6 -31 -41 -31h-98q-78 0 -108.5 -25.5t-46.5 -115.5l-27 -148h221q33 0 33 -30v-6l-12 -72q-6 -35 -48 -35h-219l-182 -1032q-31 -170 -113 -227.5 t-223 -57.5q-66 0 -121 10q-33 6 -32 27v6z" />
<glyph unicode="&#xfb02;" horiz-adv-x="1257" d="M926 33v8l256 1460q6 39 45 39h106q29 0 29 -31v-8l-256 -1460q-8 -41 -45 -41h-106q-29 0 -29 33zM-61 -291l12 68q6 31 43 30h96q74 0 108.5 31t49.5 113l182 1032l-190 14q-33 4 -33 29v6l10 58q8 37 45 36h193l26 148q31 176 108 230.5t228 54.5q53 0 119 -13 q33 -6 33 -26v-7l-13 -67q-6 -31 -41 -31h-98q-78 0 -108.5 -25.5t-46.5 -115.5l-27 -148h221q33 0 33 -30v-6l-12 -72q-6 -35 -48 -35h-219l-182 -1032q-31 -170 -113 -227.5t-223 -57.5q-66 0 -121 10q-33 6 -32 27v6z" />
<glyph unicode="&#xfb03;" horiz-adv-x="2021" d="M1686 33v8l182 1044q8 41 49 41h99q33 0 32 -32v-9l-182 -1044q-8 -41 -49 -41h-98q-33 0 -33 33zM1913 1339v9l29 163q8 41 49 41h105q33 0 32 -32v-9l-28 -163q-8 -41 -49 -41h-105q-33 -1 -33 32zM697 -291l12 68q6 31 43 30h96q74 0 108.5 31t49.5 113l182 1032 l-190 14q-33 4 -33 29v6l10 58q8 37 45 36h193l26 148q31 176 108 230.5t228 54.5q53 0 119 -13q33 -6 33 -26v-7l-13 -67q-6 -31 -41 -31h-98q-78 0 -108.5 -25.5t-46.5 -115.5l-27 -148h221q33 0 33 -30v-6l-12 -72q-6 -35 -48 -35h-219l-182 -1032q-31 -170 -113 -227.5 t-223 -57.5q-66 0 -121 10q-33 6 -32 27v6zM-61 -291l12 68q6 31 43 30h96q74 0 108.5 31t49.5 113l182 1032l-190 14q-33 4 -33 29v6l10 58q8 37 45 36h193l26 148q31 176 108 230.5t228 54.5q53 0 119 -13q33 -6 33 -26v-7l-13 -67q-6 -31 -41 -31h-98q-78 0 -108.5 -25.5 t-46.5 -115.5l-27 -148h221q33 0 33 -30v-6l-12 -72q-6 -35 -48 -35h-219l-182 -1032q-31 -170 -113 -227.5t-223 -57.5q-66 0 -121 10q-33 6 -32 27v6z" />
<glyph unicode="&#xfb04;" horiz-adv-x="2015" d="M1684 33v8l256 1460q6 39 45 39h106q29 0 29 -31v-8l-256 -1460q-8 -41 -45 -41h-106q-29 0 -29 33zM697 -291l12 68q6 31 43 30h96q74 0 108.5 31t49.5 113l182 1032l-190 14q-33 4 -33 29v6l10 58q8 37 45 36h193l26 148q31 176 108 230.5t228 54.5q53 0 119 -13 q33 -6 33 -26v-7l-13 -67q-6 -31 -41 -31h-98q-78 0 -108.5 -25.5t-46.5 -115.5l-27 -148h221q33 0 33 -30v-6l-12 -72q-6 -35 -48 -35h-219l-182 -1032q-31 -170 -113 -227.5t-223 -57.5q-66 0 -121 10q-33 6 -32 27v6zM-61 -291l12 68q6 31 43 30h96q74 0 108.5 31 t49.5 113l182 1032l-190 14q-33 4 -33 29v6l10 58q8 37 45 36h193l26 148q31 176 108 230.5t228 54.5q53 0 119 -13q33 -6 33 -26v-7l-13 -67q-6 -31 -41 -31h-98q-78 0 -108.5 -25.5t-46.5 -115.5l-27 -148h221q33 0 33 -30v-6l-12 -72q-6 -35 -48 -35h-219l-182 -1032 q-31 -170 -113 -227.5t-223 -57.5q-66 0 -121 10q-33 6 -32 27v6z" />
</font>
</defs>
</svg>
